<svg id="Layer_1" data-name="Layer 1" xmlns="http://www.w3.org/2000/svg" xmlns:xlink="http://www.w3.org/1999/xlink" viewBox="0 0 709 803.6"><defs><style>.cls-1,.cls-63{fill:#c4985a;}.cls-2,.cls-53{fill:#fff;}.cls-2{stroke:#1a1a1a;stroke-width:2px;}.cls-19,.cls-2,.cls-53{stroke-miterlimit:10;}.cls-3{font-size:36px;letter-spacing:0.12em;}.cls-10,.cls-15,.cls-20,.cls-22,.cls-24,.cls-29,.cls-3,.cls-31,.cls-34,.cls-39,.cls-4,.cls-44,.cls-5,.cls-50,.cls-52,.cls-6{fill:#1a1a1a;}.cls-20,.cls-3,.cls-34{font-family:Arial-Black, Arial;font-weight:800;}.cls-4{font-size:24px;font-family:OpenSans-Light, Open Sans;font-weight:300;letter-spacing:0.08em;}.cls-6{font-size:10px;letter-spacing:0.04em;}.cls-10,.cls-22,.cls-24,.cls-29,.cls-31,.cls-39,.cls-50,.cls-52,.cls-6{font-family:OpenSans-Bold, Open Sans;font-weight:700;}.cls-63,.cls-64,.cls-7,.cls-8{font-size:8.5px;}.cls-21,.cls-37,.cls-43,.cls-54,.cls-59,.cls-61,.cls-68,.cls-7{fill:#404040;}.cls-15,.cls-21,.cls-25,.cls-26,.cls-27,.cls-28,.cls-30,.cls-32,.cls-33,.cls-37,.cls-43,.cls-44,.cls-51,.cls-54,.cls-59,.cls-61,.cls-63,.cls-64,.cls-68,.cls-7,.cls-8{font-family:ArialMT, Arial;}.cls-14,.cls-8{fill:#e8804a;}.cls-9{letter-spacing:-0.04em;}.cls-10{font-size:14px;letter-spacing:0.1em;}.cls-11{letter-spacing:-0.06em;}.cls-12{letter-spacing:-0.06em;}.cls-13{letter-spacing:0em;}.cls-15{font-size:12px;letter-spacing:0.22em;}.cls-16{letter-spacing:0.16em;}.cls-17{letter-spacing:0.2em;}.cls-18{letter-spacing:0.22em;}.cls-19{fill:#f0eeea;stroke-width:0.3px;}.cls-19,.cls-53{stroke:#c8c2b5;}.cls-20{font-size:22px;letter-spacing:0.04em;}.cls-21,.cls-24,.cls-29,.cls-31,.cls-37,.cls-43{font-size:7.5px;}.cls-21,.cls-25,.cls-31{letter-spacing:0.02em;}.cls-22{font-size:10.5px;letter-spacing:0.02em;}.cls-23{letter-spacing:0em;}.cls-24,.cls-38,.cls-43{letter-spacing:0.02em;}.cls-25,.cls-26,.cls-27,.cls-28,.cls-30,.cls-32,.cls-33,.cls-51,.cls-64{fill:#707070;}.cls-25,.cls-26,.cls-27,.cls-28,.cls-30,.cls-32,.cls-33{font-weight:400;}.cls-26{letter-spacing:0em;}.cls-27{letter-spacing:-0.09em;}.cls-29,.cls-32{letter-spacing:0.02em;}.cls-30{letter-spacing:0em;}.cls-33{letter-spacing:-0.04em;}.cls-34{font-size:22.13px;letter-spacing:0.02em;}.cls-35{letter-spacing:0.04em;}.cls-36{letter-spacing:0.02em;}.cls-37{letter-spacing:-0.02em;}.cls-39{font-size:8.9px;letter-spacing:0.02em;}.cls-40{letter-spacing:-0.02em;}.cls-41{letter-spacing:-0.11em;}.cls-42{letter-spacing:-0.01em;}.cls-44{font-size:11px;letter-spacing:0.22em;}.cls-45{letter-spacing:0.2em;}.cls-46{letter-spacing:0.22em;}.cls-47{letter-spacing:0.15em;}.cls-48{letter-spacing:0.22em;}.cls-49{fill:#1798c1;}.cls-50,.cls-61{font-size:9px;}.cls-51,.cls-68{font-size:8px;}.cls-52{font-size:9.5px;}.cls-53{stroke-width:0.5px;}.cls-54,.cls-59{font-size:7px;}.cls-54{letter-spacing:0.02em;}.cls-55{letter-spacing:-0.04em;}.cls-56{letter-spacing:-0.02em;}.cls-57{letter-spacing:0em;}.cls-58{letter-spacing:0em;}.cls-59{letter-spacing:-0.09em;}.cls-60{letter-spacing:0.02em;}.cls-62{letter-spacing:0.15em;}.cls-65{letter-spacing:-0.04em;}.cls-66{letter-spacing:-0.07em;}.cls-67{letter-spacing:-0.02em;}.cls-69{letter-spacing:-0.06em;}</style></defs><title>english</title><rect class="cls-1" x="117" width="150" height="130"/><rect class="cls-2" x="147" y="30" width="150" height="130"/><text class="cls-3" transform="translate(317 96)">PRINCE</text><text class="cls-4" transform="translate(317 126)">KOMBILA MBADINGA</text><rect class="cls-5" x="317" y="160" width="200" height="0.5"/><text class="cls-6" transform="translate(342 191)"><tspan xml:space="preserve">Consultant Salesforce &amp; AI  · Data Analyst</tspan></text><text class="cls-7" transform="translate(612.23 65.5)">+33 6 24 97 24 29</text><text class="cls-7" transform="translate(589.73 78.5)">pmbadinga@yahoo.com</text><text class="cls-8" transform="translate(533.98 95.5)">linkedin.com/in/prince-kombila-mbadinga</text><text class="cls-7" transform="translate(631.71 125.5)"><tspan class="cls-9">L</tspan><tspan x="4.41" y="0">yon, France</tspan></text><text class="cls-10" transform="translate(348.44 225)">Professional Summary</text><text class="cls-7" transform="translate(354 250.09)">Consultant Salesforce &amp;<tspan class="cls-11" x="91.19" y="0"> </tspan><tspan x="93.08" y="0">AI spécialisé en analyse fonctionnelle et conception de solutions </tspan><tspan x="0" y="11.22">fonctionnelles et techniques sur la plateforme Salesforce. J&apos;accompagne les directions </tspan><tspan x="0" y="22.44">métier dans le cadrage et la mise en place de leur stratégie Salesforce, en adhérence </tspan><tspan x="0" y="33.66">avec les bonnes pratiques de la plateforme. Expert</tspan><tspan class="cls-11" x="191.37" y="33.66"> </tspan><tspan x="193.26" y="33.66">Agentforce, Einstein</tspan><tspan class="cls-12" x="269.33" y="33.66"> </tspan><tspan class="cls-13" x="271.22" y="33.66">AI et Data Cloud, </tspan><tspan x="0" y="44.88">j&apos;optimise les processus opérationnels et conçois des solutions à valeur ajoutée — du </tspan><tspan x="0" y="56.1">recueil du besoin auprès des parties prenantes jusqu&apos;à la mise en production, en contexte </tspan><tspan x="0" y="67.32">Agile Scrum. Certifié Salesforce, anglais bilingue, à l&apos;aise en contexte international.</tspan></text><rect class="cls-14" x="342" y="244" width="2" height="78.54"/><text class="cls-15" transform="translate(342 352.54)">CAREER<tspan class="cls-16" x="65.85" y="0"> </tspan><tspan x="71.16" y="0">AND KE</tspan><tspan class="cls-17" x="131.68" y="0">Y</tspan><tspan class="cls-18" x="142.11" y="0" xml:space="preserve"> PROJECTS</tspan></text><rect class="cls-19" x="342" y="362.54" width="32" height="32"/><text class="cls-20" transform="translate(382 380.54)">NIJI</text><rect class="cls-19" x="382" y="390.54" width="35.34" height="13.5" rx="3"/><text class="cls-21" transform="translate(388 401.59)">France</text><text class="cls-22" transform="translate(438.56 377.04)">Consultant Salesforce &amp; AI — 09/2024 - Présent</text><text class="cls-7" transform="translate(342 413.63)">Cadrage, conception et déploiement de solutions Salesforce pour des comptes grands <tspan x="0" y="11.22">comptes. Conception de pilotes I</tspan><tspan class="cls-11" x="123.32" y="11.22">A </tspan><tspan x="130.42" y="11.22">Agentforce (analyse fonctionnelle, prompt engineering, </tspan><tspan x="0" y="22.44">Data Cloud,</tspan><tspan class="cls-11" x="44.89" y="22.44"> </tspan><tspan class="cls-23" x="46.78" y="22.44">Apex, Flow), animation d&apos;ateliers avec les parties prenantes, pilotage des </tspan><tspan x="0" y="33.66">recettes et conduite du changement en</tspan><tspan class="cls-11" x="146.96" y="33.66"> </tspan><tspan x="148.86" y="33.66">Agile Scrum.</tspan></text><rect class="cls-19" x="342" y="455.42" width="72.86" height="13.5" rx="3"/><text class="cls-24" transform="translate(348 465.47)">Broadpeak<tspan class="cls-25" x="42.07" y="0" xml:space="preserve">  </tspan><tspan class="cls-26" x="46.54" y="0"> </tspan><tspan class="cls-27" x="48.64" y="0">T</tspan><tspan class="cls-28" x="52.54" y="0">elco</tspan></text><rect class="cls-19" x="419.86" y="455.42" width="59.1" height="13.5" rx="3"/><text class="cls-29" transform="translate(425.86 465.47)">LOXAM<tspan class="cls-28" x="28.21" y="0" xml:space="preserve">   BT</tspan><tspan class="cls-30" x="44.79" y="0">P</tspan></text><rect class="cls-19" x="483.96" y="455.42" width="60.77" height="13.5" rx="3"/><text class="cls-31" transform="translate(489.96 465.47)">Hermès<tspan class="cls-32" x="30" y="0" xml:space="preserve">   Luxe</tspan></text><rect class="cls-19" x="591.73" y="455.42" width="112.04" height="13.5" rx="3"/><text class="cls-31" transform="translate(592.73 465.47)">Europ Assistance<tspan class="cls-32" x="65.92" y="0" xml:space="preserve">  </tspan><tspan class="cls-33" x="70.39" y="0"> </tspan><tspan class="cls-28" x="72.21" y="0">Assurance</tspan></text><rect class="cls-19" x="342" y="497.92" width="32" height="32"/><text class="cls-34" transform="translate(380 503.88) scale(0.98 1)">W<tspan class="cls-35" x="22.64" y="0">ORLD MISSION </tspan><tspan class="cls-36" x="223.51" y="0">A</tspan><tspan class="cls-35" x="241.21" y="0">GENCY</tspan></text><rect class="cls-19" x="382" y="518.92" width="55.77" height="13.5" rx="3"/><text class="cls-37" transform="translate(388 528.97)">L<tspan class="cls-38" x="4.04" y="0">yon, France</tspan></text><text class="cls-39" transform="translate(378.42 514.89) scale(1.15 1)">Responsable Marketing Digital &amp; Analytics — 02/2023 - 09/2024</text><text class="cls-7" transform="translate(344 548.01)">Intégration Facebook<tspan class="cls-11" x="79.86" y="0"> </tspan><tspan x="81.75" y="0">Ads vers Salesforce (Lead</tspan><tspan class="cls-11" x="181.44" y="0"> </tspan><tspan x="183.34" y="0">Ads, mapping des champs, synchronisation </tspan><tspan x="0" y="11.22">CRM temps réel). Qualification et scoring des leads, optimisation du funnel d&apos;acquisition et </tspan><tspan x="0" y="22.44">production de dashboards décisionnels</tspan><tspan class="cls-40" x="147.44" y="22.44"> </tspan><tspan class="cls-41" x="149.65" y="22.44">T</tspan><tspan x="153.9" y="22.44">ableau pour le pilotage et la restitution aux parties </tspan><tspan x="0" y="33.66">prenantes.</tspan></text><text class="cls-20" transform="translate(382 605.8)">RHYTHEX CONSU<tspan class="cls-42" x="226.52" y="0">L</tspan><tspan x="240.96" y="0">TING</tspan></text><rect class="cls-19" x="382" y="615.8" width="34.51" height="13.5" rx="3"/><text class="cls-43" transform="translate(388 625.85)">Ghana</text><text class="cls-22" transform="translate(502.71 622.3)">Data Analyst — 02/2022 - 04/2024</text><text class="cls-7" transform="translate(339 645.89)">Collecte, nettoyage et consolidation de données multi-sources avec<tspan class="cls-11" x="254.21" y="0"> </tspan><tspan x="256.11" y="0">Alteryx et Dataiku. </tspan><tspan x="0" y="11.22">Animation d&apos;ateliers de cadrage avec les stakeholders pour définir des KPI mesurables, </tspan><tspan x="0" y="22.44">création de dashboards</tspan><tspan class="cls-40" x="88.84" y="22.44"> </tspan><tspan class="cls-41" x="91.05" y="22.44">T</tspan><tspan x="95.3" y="22.44">ableau et Power BI et recommandations stratégiques data-driven.</tspan></text><text class="cls-44" transform="translate(342 694.46)">CE<tspan class="cls-45" x="20.12" y="0">R</tspan><tspan class="cls-46" x="30.29" y="0">TIFIC</tspan><tspan class="cls-47" x="69.88" y="0">A</tspan><tspan class="cls-48" x="78.82" y="0">TIONS</tspan></text><circle class="cls-49" cx="346" cy="710.46" r="4"/><text class="cls-50" transform="translate(354 714.46)">Agentforce Specialist</text><text x="117"/><circle class="cls-49" cx="525" cy="710.46" r="4"/><text class="cls-50" transform="translate(533 714.46)">Agentblazer Legend</text><text x="117"/><circle class="cls-49" cx="346" cy="726.46" r="4"/><text class="cls-50" transform="translate(354 730.46)">Data 360 Consultant</text><text x="117"/><circle class="cls-49" cx="525" cy="726.46" r="4"/><text class="cls-50" transform="translate(533 730.46)">Double Star Ranger</text><text x="117"/><circle class="cls-49" cx="346" cy="742.46" r="4"/><text class="cls-50" transform="translate(354 746.46)">Platform Administrator</text><text x="117"/><circle class="cls-49" cx="525" cy="742.46" r="4"/><text class="cls-50" transform="translate(533 746.46)">Data Analyst Niveau 3</text><text class="cls-51" transform="translate(627.04 746.26)">(</text><circle class="cls-49" cx="346" cy="758.46" r="4"/><text class="cls-50" transform="translate(354 762.46)">AI Associate</text><text x="117"/><circle class="cls-49" cx="525" cy="758.46" r="4"/><text class="cls-50" transform="translate(533 762.46)">Python for Data Science</text><text x="117"/><circle class="cls-49" cx="346" cy="774.46" r="4"/><text class="cls-50" transform="translate(354 778.46)">Alteryx Designer Core</text><text x="117"/><circle class="cls-49" cx="525" cy="774.46" r="4"/><text class="cls-50" transform="translate(533 778.46)">Data-Driven Marketing</text><text class="cls-51" transform="translate(628.02 778.26)">()</text><text class="cls-44" transform="translate(135 301)">SKILLS</text><text class="cls-52" transform="translate(135 317.5)">Salesforce</text><rect class="cls-53" x="135" y="320" width="45.85" height="13" rx="3"/><text class="cls-54" transform="translate(141 329.58)">Agentforce</text><rect class="cls-53" x="182.85" y="320" width="45.46" height="13" rx="3"/><text class="cls-54" transform="translate(188.85 329.58)">Einstein<tspan class="cls-55" x="26.02" y="0"> </tspan><tspan x="27.72" y="0">AI</tspan></text><rect class="cls-53" x="230.31" y="320" width="47.01" height="13" rx="3"/><text class="cls-54" transform="translate(236.31 329.58)">Data Cloud</text><rect class="cls-53" x="279.33" y="320" width="27.95" height="13" rx="3"/><text class="cls-54" transform="translate(285.33 329.58)">Apex</text><rect class="cls-53" x="135" y="335" width="50.51" height="13" rx="3"/><text class="cls-54" transform="translate(141 344.58)">Flow Builder</text><rect class="cls-53" x="187.51" y="335" width="31.45" height="13" rx="3"/><text class="cls-54" transform="translate(193.51 344.58)">SOQ<tspan class="cls-56" x="15.98" y="0">L</tspan></text><rect class="cls-53" x="220.96" y="335" width="55.57" height="13" rx="3"/><text class="cls-54" transform="translate(226.96 344.58)">Service Cloud</text><rect class="cls-53" x="135" y="350" width="49.74" height="13" rx="3"/><text class="cls-54" transform="translate(141 359.58)">Sales Cloud</text><rect class="cls-53" x="186.74" y="350" width="43.9" height="13" rx="3"/><text class="cls-54" transform="translate(192.74 359.58)">API RES<tspan class="cls-57" x="28.6" y="0">T</tspan></text><rect class="cls-53" x="232.64" y="350" width="48.18" height="13" rx="3"/><text class="cls-54" transform="translate(238.64 359.58)">OAuth/JW<tspan class="cls-58" x="33.02" y="0">T</tspan></text><rect class="cls-53" x="135" y="365" width="53.24" height="13" rx="3"/><text class="cls-54" transform="translate(141 374.58)">Search Index</text><rect class="cls-53" x="190.24" y="365" width="27.17" height="13" rx="3"/><text class="cls-54" transform="translate(196.24 374.58)">RAG</text><text class="cls-52" transform="translate(135 393.5)">Data &amp; BI</text><rect class="cls-53" x="135" y="396" width="33.79" height="13" rx="3"/><text class="cls-54" transform="translate(141 405.58)">Python</text><rect class="cls-53" x="170.79" y="396" width="26.01" height="13" rx="3"/><text class="cls-54" transform="translate(176.79 405.58)">SQ<tspan class="cls-56" x="10.39" y="0">L</tspan></text><rect class="cls-53" x="198.8" y="396" width="35.74" height="13" rx="3"/><text class="cls-54" transform="translate(204.8 405.58)">Pandas</text><rect class="cls-53" x="236.53" y="396" width="46.61" height="13" rx="3"/><text class="cls-54" transform="translate(242.54 405.58)">Scikit-learn</text><rect class="cls-53" x="135" y="411" width="37.29" height="13" rx="3"/><text class="cls-59" transform="translate(141 420.58)">T<tspan class="cls-60" x="3.64" y="0">ableau</tspan></text><rect class="cls-53" x="174.29" y="411" width="40.4" height="13" rx="3"/><text class="cls-54" transform="translate(180.29 420.58)">Power BI</text><rect class="cls-53" x="216.69" y="411" width="35.73" height="13" rx="3"/><text class="cls-54" transform="translate(222.69 420.58)">Dataiku</text><rect class="cls-53" x="254.42" y="411" width="33.39" height="13" rx="3"/><text class="cls-54" transform="translate(260.42 420.58)">Alteryx</text><rect class="cls-53" x="289.81" y="411" width="27.16" height="13" rx="3"/><text class="cls-54" transform="translate(295.81 420.58)">RFM</text><rect class="cls-53" x="135" y="426" width="31.06" height="13" rx="3"/><text class="cls-54" transform="translate(141 435.58)">SHA<tspan class="cls-57" x="14.81" y="0">P</tspan></text><text class="cls-52" transform="translate(135 454.5)">Business Analysis</text><rect class="cls-53" x="135" y="457" width="38.85" height="13" rx="3"/><text class="cls-54" transform="translate(141 466.58)">Cadrage</text><rect class="cls-53" x="175.85" y="457" width="67.64" height="13" rx="3"/><text class="cls-54" transform="translate(181.85 466.58)">Recueil du besoin</text><rect class="cls-53" x="135" y="472" width="86.7" height="13" rx="3"/><text class="cls-54" transform="translate(141 481.58)">Conception de solutions</text><rect class="cls-53" x="223.7" y="472" width="84.74" height="13" rx="3"/><text class="cls-54" transform="translate(229.7 481.58)">Optimisation processus</text><rect class="cls-53" x="135" y="487" width="59.07" height="13" rx="3"/><text class="cls-54" transform="translate(141 496.58)">Documentation</text><rect class="cls-53" x="196.07" y="487" width="36.12" height="13" rx="3"/><text class="cls-54" transform="translate(202.08 496.58)">Recette</text><text class="cls-44" transform="translate(135 517)">METHODOLOG<tspan class="cls-45" x="103.65" y="0">Y</tspan></text><rect class="cls-53" x="135" y="524" width="54.01" height="13" rx="3"/><text class="cls-54" transform="translate(141 533.58)">Agile - Scrum</text><rect class="cls-53" x="191.01" y="524" width="57.91" height="13" rx="3"/><text class="cls-54" transform="translate(197.01 533.58)">Agile - Kanban</text><text class="cls-44" transform="translate(135 558)">LANGUAGES</text><text class="cls-61" transform="translate(135 574)">Français — Native</text><rect class="cls-1" x="279" y="566" width="6" height="3"/><rect class="cls-1" x="287" y="566" width="6" height="3"/><rect class="cls-1" x="295" y="566" width="6" height="3"/><rect class="cls-1" x="303" y="566" width="6" height="3"/><rect class="cls-1" x="311" y="566" width="6" height="3"/><text class="cls-61" transform="translate(135 589)">Anglais — Bilingue (C2)</text><rect class="cls-1" x="279" y="581" width="6" height="3"/><rect class="cls-1" x="287" y="581" width="6" height="3"/><rect class="cls-1" x="295" y="581" width="6" height="3"/><rect class="cls-1" x="303" y="581" width="6" height="3"/><rect class="cls-1" x="311" y="581" width="6" height="3"/><text class="cls-44" transform="translate(135 613)">EDUC<tspan class="cls-62" x="40.85" y="0">A</tspan><tspan x="49.79" y="0">TION</tspan></text><text class="cls-63" transform="translate(135 628.5)">2024 - 2026</text><text class="cls-52" transform="translate(135 640.5)">MSc Manager Data Marketing</text><text class="cls-64" transform="translate(135 651.5)">INSEEC <tspan class="cls-65" x="34.01" y="0">L</tspan><tspan x="38.42" y="0">yon</tspan></text><text class="cls-63" transform="translate(135 665.5)">2023 - 2024</text><text class="cls-52" transform="translate(135 677.5)">Mastère Management &amp; Stratégie</text><text class="cls-64" transform="translate(135 688.5)"><tspan class="cls-66">L</tspan><tspan class="cls-23" x="4.1" y="0">YSSU</tspan><tspan class="cls-67" x="27.24" y="0">P</tspan><tspan x="32.76" y="0" xml:space="preserve"> International </tspan><tspan class="cls-65" x="84.27" y="0">L</tspan><tspan x="88.68" y="0">yon</tspan></text><text class="cls-63" transform="translate(135 702.5)">2017 - 2021</text><text class="cls-52" transform="translate(135 714.5)">Bachelor Systèmes d&apos;Information</text><text class="cls-64" transform="translate(135 725.5)">University of Cape Coast, Ghana</text><text class="cls-44" transform="translate(135 746)">EXPERIENCE</text><circle class="cls-1" cx="137" cy="756" r="2"/><text class="cls-68" transform="translate(144 758.73)">Référent<tspan class="cls-69" x="30.68" y="0"> </tspan><tspan x="32.46" y="0">Agentforce Niji — formation des </tspan><tspan x="0" y="10.4">nouveaux entrants</tspan></text><circle class="cls-1" cx="137" cy="783.8" r="2"/><text class="cls-68" transform="translate(144 786.53)">Concours Open Data University — Défi Enedis <tspan x="0" y="10.4">2025-2026</tspan></text><image width="800" height="800" transform="translate(141 16.89) scale(0.2 0.19)" xlink:href="Elza/prince_kombila_workspace/prince_kombila_workspace/cv/prince_cv_photo_buste.png"/><text x="117"/><text x="117"/><text class="cls-8" transform="translate(594.06 111)">princekombila.github.io</text><text x="117"/><image width="1200" height="1200" transform="translate(339 355.89) scale(0.03 0.03)" xlink:href="les%20logos%20pour%20les%20sections/niji.png"/><image width="228" height="221" transform="translate(348 444.89) scale(0.2 0.2)" xlink:href="les%20logos%20pour%20les%20sections/world%20mission%20agency.jpg"/><image width="607" height="222" transform="translate(312 588.89) scale(0.11 0.16)" xlink:href="les%20logos%20pour%20les%20sections/rhythex%20consulting.png"/></svg>