<svg xmlns="http://www.w3.org/2000/svg" width="1280" height="720" viewBox="0 0 1280 720" role="img" aria-labelledby="title desc">
  <title id="title">Apercu placeholder du portfolio</title>
  <desc id="desc">Composition sombre avec grille, titre editorial, tableau de bord et cartes projets.</desc>
  <defs>
    <linearGradient id="bg" x1="0" y1="0" x2="1" y2="1">
      <stop offset="0" stop-color="#07090b"/>
      <stop offset="0.56" stop-color="#0b1518"/>
      <stop offset="1" stop-color="#07090b"/>
    </linearGradient>
    <pattern id="grid" width="48" height="48" patternUnits="userSpaceOnUse">
      <path d="M48 0H0V48" fill="none" stroke="#f1eee7" stroke-opacity="0.08"/>
    </pattern>
  </defs>
  <rect width="1280" height="720" fill="url(#bg)"/>
  <rect width="1280" height="720" fill="url(#grid)"/>
  <rect x="0.5" y="0.5" width="1279" height="38" fill="#090d10" stroke="#f1eee7" stroke-opacity="0.18"/>
  <text x="28" y="25" fill="#f1eee7" font-family="Menlo, Consolas, monospace" font-size="14" letter-spacing="2">PORTFOLIO.EXE</text>
  <text x="104" y="184" fill="#f1eee7" font-family="Georgia, serif" font-size="86">NOM PRENOM</text>
  <text x="108" y="234" fill="#71dce5" font-family="Menlo, Consolas, monospace" font-size="19" letter-spacing="5">DATA / DESIGN / CODE / ECRITURE</text>
  <text x="108" y="298" fill="#a7a29a" font-family="Inter, Arial, sans-serif" font-size="22">Portfolio editorial retro, dashboard minimaliste et laboratoire creatif.</text>
  <rect x="110" y="344" width="168" height="44" fill="none" stroke="#71dce5"/>
  <text x="135" y="372" fill="#71dce5" font-family="Menlo, Consolas, monospace" font-size="13"> PROJETS</text>
  <rect x="850" y="110" width="324" height="214" fill="#0d1216" stroke="#f1eee7" stroke-opacity="0.2"/>
  <text x="874" y="145" fill="#a7a29a" font-family="Menlo, Consolas, monospace" font-size="12">TABLEAU_DE_BORD</text>
  <text x="874" y="205" fill="#f1eee7" font-family="Menlo, Consolas, monospace" font-size="44">06</text>
  <text x="986" y="205" fill="#f1eee7" font-family="Menlo, Consolas, monospace" font-size="44">4</text>
  <text x="1080" y="205" fill="#f1eee7" font-family="Menlo, Consolas, monospace" font-size="44">∞</text>
  <path d="M875 276h20v-42h13v26h13v-65h13v81h13v-50h13v50h13v-95h13v95h13v-30h13v30h13v-62h13v62h13v-40h13v40h13v-73h13v73" fill="none" stroke="#71dce5" stroke-width="5"/>
  <g fill="none" stroke="#f1eee7" stroke-opacity="0.2">
    <rect x="108" y="486" width="246" height="118"/>
    <rect x="386" y="486" width="246" height="118"/>
    <rect x="664" y="486" width="246" height="118"/>
    <rect x="942" y="486" width="246" height="118"/>
  </g>
  <g font-family="Georgia, serif" font-size="26" fill="#f1eee7">
    <text x="128" y="535">Market Signal</text>
    <text x="406" y="535">Pulse BI</text>
    <text x="684" y="535">Clarity Desk</text>
    <text x="962" y="535">Noise Index</text>
  </g>
  <g font-family="Menlo, Consolas, monospace" font-size="12">
    <text x="128" y="570" fill="#71dce5">PUBLIE</text>
    <text x="406" y="570" fill="#ff9b6a">EN COURS</text>
    <text x="684" y="570" fill="#b88cff">CONCEPT</text>
    <text x="962" y="570" fill="#ead37a">CONCEPT</text>
  </g>
</svg>
